<?xml version="1.0" encoding="utf-8"?>
<!-- Generator: Adobe Illustrator 24.3.0, SVG Export Plug-In . SVG Version: 6.00 Build 0)  -->
<svg version="1.1" id="Layer_5_copy" xmlns="http://www.w3.org/2000/svg" xmlns:xlink="http://www.w3.org/1999/xlink" x="0px"
	 y="0px" width="820px" height="598.48px" viewBox="0 0 820 598.48" style="enable-background:new 0 0 820 598.48;"
	 xml:space="preserve">
<style type="text/css">
	.st0{fill:url(#SVGID_1_);}
	.st1{fill:url(#SVGID_2_);}
	.st2{fill:url(#SVGID_3_);}
	.st3{fill:url(#SVGID_4_);}
	.st4{fill:url(#SVGID_5_);}
	.st5{fill:url(#SVGID_6_);}
	.st6{fill:url(#SVGID_7_);}
	.st7{fill:url(#SVGID_8_);}
	.st8{fill:#333333;}
	.st9{fill:url(#SVGID_9_);}
	.st10{fill:#FFFFFF;}
</style>
<g>
	
		<linearGradient id="SVGID_1_" gradientUnits="userSpaceOnUse" x1="123.1509" y1="491.4268" x2="341.2686" y2="491.4268" gradientTransform="matrix(1 0 0 -1 0 802)">
		<stop  offset="0" style="stop-color:#17C9C0"/>
		<stop  offset="0.17" style="stop-color:#00A9D7"/>
		<stop  offset="0.56" style="stop-color:#1CD0BB"/>
		<stop  offset="1" style="stop-color:#0FBEC8"/>
	</linearGradient>
	<path class="st0" d="M204.136,498.442l-2.205-2.312c-47.121-49.74-74.968-114.813-78.417-183.238
		c-3.449-68.424,17.715-135.967,59.593-190.189l2.468,1.906c-41.423,53.633-62.357,120.444-58.946,188.126
		c3.412,67.682,30.957,132.05,77.563,181.246l132.83-132.867c-22.459-26.418-29.086-62.993-17.283-95.634l0.114-0.311
		c0.133-0.364,0.268-0.731,0.406-1.093c3.915-10.366,9.546-19.905,16.736-28.345l0.032-0.038L236.801,135.5l2.205-2.205
		l102.263,102.232l-1.899,2.229c-6.957,8.167-12.406,17.396-16.196,27.431c-0.136,0.354-0.264,0.707-0.392,1.056l-0.112,0.307
		c-11.498,31.795-4.918,67.458,17.173,93.064l0.378,0.439v2.274l-0.457,0.457L204.136,498.442z"/>
	
		<linearGradient id="SVGID_2_" gradientUnits="userSpaceOnUse" x1="123.2417" y1="679.3698" x2="341.2624" y2="679.3698" gradientTransform="matrix(1 0 0 -1 0 802)">
		<stop  offset="0" style="stop-color:#17C9C0"/>
		<stop  offset="0.17" style="stop-color:#00A9D7"/>
		<stop  offset="0.56" style="stop-color:#1CD0BB"/>
		<stop  offset="1" style="stop-color:#0FBEC8"/>
	</linearGradient>
	<polygon class="st1" points="189.042,130.312 191.354,114.948 176.895,120.622 	"/>
	
		<linearGradient id="SVGID_3_" gradientUnits="userSpaceOnUse" x1="211.1162" y1="684.34" x2="595.6183" y2="684.34" gradientTransform="matrix(1 0 0 -1 0 802)">
		<stop  offset="0" style="stop-color:#17C9C0"/>
		<stop  offset="0.17" style="stop-color:#00A9D7"/>
		<stop  offset="0.56" style="stop-color:#1CD0BB"/>
		<stop  offset="1" style="stop-color:#0FBEC8"/>
	</linearGradient>
	<path class="st2" d="M474.013,226.717l-1.524-1.287c-0.258-0.224-0.559-0.485-0.666-0.572c-8.206-6.987-17.436-12.436-27.47-16.228
		l-1.373-0.505c-31.79-11.489-67.453-4.913-93.062,17.166l-0.439,0.378h-2.275L211.116,89.583l2.326-2.205
		C263.178,40.26,328.25,12.414,396.673,8.966c68.418-3.448,135.964,17.718,190.184,59.598l-1.906,2.468
		C531.32,29.607,464.512,8.672,396.83,12.081c-67.681,3.41-132.047,30.955-181.243,77.561l-0.001,0.001l132.83,132.83
		c26.422-22.445,62.998-29.069,95.633-17.276l1.394,0.513c10.383,3.924,19.922,9.556,28.362,16.744
		c0.009,0.007,0.021,0.016,0.035,0.028l100.223-100.222l2.205,2.205L474.013,226.717z"/>
	
		<linearGradient id="SVGID_4_" gradientUnits="userSpaceOnUse" x1="211.1147" y1="732.4184" x2="595.6174" y2="732.4184" gradientTransform="matrix(1 0 0 -1 0 802)">
		<stop  offset="0" style="stop-color:#17C9C0"/>
		<stop  offset="0.17" style="stop-color:#00A9D7"/>
		<stop  offset="0.56" style="stop-color:#1CD0BB"/>
		<stop  offset="1" style="stop-color:#0FBEC8"/>
	</linearGradient>
	<polygon class="st3" points="579.257,74.499 594.613,76.811 588.939,62.352 	"/>
	
		<linearGradient id="SVGID_5_" gradientUnits="userSpaceOnUse" x1="482.376" y1="515.3977" x2="700.5021" y2="515.3977" gradientTransform="matrix(1 0 0 -1 0 802)">
		<stop  offset="0" style="stop-color:#17C9C0"/>
		<stop  offset="0.17" style="stop-color:#00A9D7"/>
		<stop  offset="0.56" style="stop-color:#1CD0BB"/>
		<stop  offset="1" style="stop-color:#0FBEC8"/>
	</linearGradient>
	<path class="st4" d="M640.571,474.452l-2.469-1.906c41.409-53.632,62.335-120.437,58.921-188.109
		c-3.414-67.672-30.956-132.032-77.552-181.225L486.645,236.007c22.442,26.421,29.065,62.994,17.272,95.628
		c-0.171,0.473-0.342,0.948-0.521,1.415c-3.914,10.361-9.546,19.9-16.734,28.342c-0.008,0.01-0.018,0.021-0.028,0.035
		l100.222,100.222l-2.205,2.205L482.376,361.58l0.956-1.098c0.152-0.175,0.779-0.895,0.925-1.077
		c6.985-8.204,12.435-17.434,16.225-27.467c0.176-0.455,0.339-0.908,0.502-1.361c11.492-31.801,4.916-67.464-17.162-93.073
		l-0.379-0.439v-2.267l0.457-0.457L619.526,98.752l2.205,2.311c47.111,49.737,74.955,114.803,78.406,183.216
		C703.589,352.694,682.435,420.231,640.571,474.452z"/>
	
		<linearGradient id="SVGID_6_" gradientUnits="userSpaceOnUse" x1="482.3932" y1="327.4744" x2="700.4139" y2="327.4744" gradientTransform="matrix(1 0 0 -1 0 802)">
		<stop  offset="0" style="stop-color:#17C9C0"/>
		<stop  offset="0.17" style="stop-color:#00A9D7"/>
		<stop  offset="0.56" style="stop-color:#1CD0BB"/>
		<stop  offset="1" style="stop-color:#0FBEC8"/>
	</linearGradient>
	<polygon class="st5" points="634.614,466.843 632.302,482.208 646.761,476.534 	"/>
	
		<linearGradient id="SVGID_7_" gradientUnits="userSpaceOnUse" x1="226.0986" y1="323.478" x2="610.6016" y2="323.478" gradientTransform="matrix(1 0 0 -1 0 802)">
		<stop  offset="0" style="stop-color:#17C9C0"/>
		<stop  offset="0.17" style="stop-color:#00A9D7"/>
		<stop  offset="0.56" style="stop-color:#1CD0BB"/>
		<stop  offset="1" style="stop-color:#0FBEC8"/>
	</linearGradient>
	<path class="st6" d="M410.604,587.579c-63.436,0.002-125.343-21.029-175.746-59.961l1.906-2.469
		c53.631,41.426,120.438,62.365,188.121,58.952c67.681-3.41,132.047-30.955,181.243-77.561l0.001-0.001L473.301,373.71
		c-26.419,22.461-62.992,29.088-95.634,17.275l-1.392-0.511c-10.387-3.922-19.926-9.554-28.365-16.744
		c-0.009-0.007-0.021-0.017-0.035-0.028L247.654,473.925l-2.205-2.205l102.254-102.255l1.531,1.293
		c0.257,0.223,0.554,0.481,0.662,0.567c8.202,6.988,17.431,12.437,27.468,16.226l1.372,0.504
		c31.795,11.508,67.457,4.93,93.063-17.165l0.438-0.378h2.275l0.457,0.457l135.631,135.631l-2.327,2.204
		c-49.735,47.117-114.808,74.964-183.23,78.411C420.228,587.458,415.406,587.579,410.604,587.579z"/>
	
		<linearGradient id="SVGID_8_" gradientUnits="userSpaceOnUse" x1="226.0987" y1="275.3956" x2="610.6013" y2="275.3956" gradientTransform="matrix(1 0 0 -1 0 802)">
		<stop  offset="0" style="stop-color:#17C9C0"/>
		<stop  offset="0.17" style="stop-color:#00A9D7"/>
		<stop  offset="0.56" style="stop-color:#1CD0BB"/>
		<stop  offset="1" style="stop-color:#0FBEC8"/>
	</linearGradient>
	<polygon class="st7" points="242.459,521.683 227.103,519.371 232.777,533.838 	"/>
</g>
<g>
	<path class="st8" d="M341.729,126.38v-0.029c0-1.143,0.952-2.065,2.08-2.065c1.113,0,2.065,0.923,2.065,2.065v0.029
		c0,1.143-0.938,2.051-2.065,2.051C342.666,128.431,341.729,127.523,341.729,126.38z"/>
	<path class="st8" d="M354.928,121.268h1.919l3.12,4.849l3.12-4.849h1.919v10.254h-1.802v-7.354l-3.237,4.834h-0.059l-3.208-4.805
		v7.324h-1.772V121.268z"/>
	<path class="st8" d="M368.656,121.268h1.802v10.254h-1.802V121.268z"/>
	<path class="st8" d="M374.105,121.268h1.67l5.494,7.09v-7.09h1.771v10.254h-1.508l-5.654-7.295v7.295h-1.773V121.268z"/>
	<path class="st8" d="M386.587,121.268h7.603v1.611h-5.801v2.666h5.142v1.611h-5.142v2.754h5.874v1.611h-7.676V121.268z"/>
	<path class="st8" d="M402.614,121.268h7.632v1.641h-5.83v2.798h5.171v1.641h-5.171v4.175h-1.802V121.268z"/>
	<path class="st8" d="M413.132,121.268h4.57c1.289,0,2.3,0.381,2.959,1.025c0.542,0.557,0.85,1.318,0.85,2.212v0.029
		c0,1.685-1.011,2.695-2.432,3.105l2.769,3.882h-2.139l-2.52-3.574h-2.256v3.574h-1.802V121.268z M417.571,126.351
		c1.289,0,2.109-0.674,2.109-1.714v-0.029c0-1.099-0.791-1.699-2.124-1.699h-2.622v3.442H417.571z"/>
	<path class="st8" d="M424.178,126.424v-0.029c0-2.886,2.227-5.303,5.376-5.303s5.347,2.388,5.347,5.273v0.029
		c0,2.886-2.227,5.303-5.376,5.303S424.178,129.31,424.178,126.424z M433.011,126.424v-0.029c0-1.992-1.45-3.647-3.486-3.647
		s-3.457,1.626-3.457,3.618v0.029c0,1.992,1.45,3.633,3.486,3.633S433.011,128.417,433.011,126.424z"/>
	<path class="st8" d="M437.992,121.268h1.919l3.12,4.849l3.12-4.849h1.919v10.254h-1.802v-7.354l-3.237,4.834h-0.059l-3.208-4.805
		v7.324h-1.772V121.268z"/>
	<path class="st8" d="M456.919,121.268h3.823c3.223,0,5.449,2.212,5.449,5.098v0.029c0,2.886-2.227,5.127-5.449,5.127h-3.823
		V121.268z M458.721,122.909v6.973h2.021c2.153,0,3.56-1.45,3.56-3.457v-0.029c0-2.007-1.406-3.486-3.56-3.486H458.721z"/>
	<path class="st8" d="M472.198,121.195h1.67l4.512,10.327h-1.904l-1.04-2.476h-4.849l-1.055,2.476h-1.846L472.198,121.195z
		 M474.776,127.45l-1.772-4.102l-1.758,4.102H474.776z"/>
	<path class="st8" d="M482.248,122.938h-3.252v-1.67h8.32v1.67h-3.252v8.584h-1.816V122.938z"/>
	<path class="st8" d="M492.445,121.195h1.67l4.512,10.327h-1.904l-1.04-2.476h-4.849l-1.055,2.476h-1.846L492.445,121.195z
		 M495.023,127.45l-1.772-4.102l-1.758,4.102H495.023z"/>
	<path class="st8" d="M341.729,150.065v-0.029c0-1.143,0.952-2.065,2.08-2.065c1.113,0,2.065,0.923,2.065,2.065v0.029
		c0,1.143-0.938,2.051-2.065,2.051C342.666,152.116,341.729,151.208,341.729,150.065z"/>
	<path class="st8" d="M355.031,144.953h1.802v10.254h-1.802V144.953z"/>
	<path class="st8" d="M360.481,144.953h3.823c3.223,0,5.449,2.212,5.449,5.098v0.029c0,2.886-2.227,5.127-5.449,5.127h-3.823
		V144.953z M362.283,146.593v6.973h2.021c2.153,0,3.56-1.45,3.56-3.457v-0.029c0-2.007-1.406-3.486-3.56-3.486H362.283z"/>
	<path class="st8" d="M372.846,144.953h7.603v1.611h-5.801v2.666h5.141v1.611h-5.141v2.754h5.873v1.611h-7.675V144.953z"/>
	<path class="st8" d="M383.57,144.953h1.67l5.493,7.09v-7.09h1.772v10.254h-1.509l-5.654-7.295v7.295h-1.772V144.953z"/>
	<path class="st8" d="M398.571,146.623h-3.252v-1.67h8.32v1.67h-3.252v8.584h-1.816V146.623z"/>
	<path class="st8" d="M406.555,144.953h1.802v10.254h-1.802V144.953z"/>
	<path class="st8" d="M414.524,146.623h-3.252v-1.67h8.32v1.67h-3.252v8.584h-1.816V146.623z"/>
	<path class="st8" d="M425.423,151.164l-4.072-6.211h2.138l2.856,4.526l2.9-4.526h2.065l-4.072,6.167v4.087h-1.816V151.164z"/>
	<path class="st8" d="M355.055,162.533h1.802v10.254h-1.802V162.533z"/>
	<path class="st8" d="M360.505,162.533h1.67l5.493,7.09v-7.09h1.772v10.254h-1.509l-5.654-7.295v7.295h-1.772V162.533z"/>
	<path class="st8" d="M372.986,162.533h7.603v1.611h-5.801v2.666h5.141v1.611h-5.141v2.754h5.873v1.611h-7.675V162.533z"/>
	<path class="st8" d="M383.71,162.533h7.632v1.641h-5.83v2.798h5.171v1.641h-5.171v4.175h-1.802V162.533z"/>
	<path class="st8" d="M394.229,162.533h7.632v1.641h-5.83v2.798h5.171v1.641h-5.171v4.175h-1.802V162.533z"/>
	<path class="st8" d="M404.851,162.533h1.802v10.254h-1.802V162.533z"/>
	<path class="st8" d="M409.846,167.689v-0.029c0-2.915,2.183-5.303,5.288-5.303c1.89,0,3.032,0.659,4.014,1.597l-1.157,1.333
		c-0.82-0.762-1.699-1.274-2.871-1.274c-1.948,0-3.384,1.611-3.384,3.618v0.029c0,2.007,1.421,3.633,3.384,3.633
		c1.26,0,2.065-0.498,2.944-1.318l1.157,1.172c-1.069,1.113-2.241,1.816-4.16,1.816
		C412.073,172.962,409.846,170.633,409.846,167.689z"/>
	<path class="st8" d="M422.123,162.533h1.801v10.254h-1.801V162.533z"/>
	<path class="st8" d="M427.571,162.533h7.603v1.611h-5.801v2.666h5.142v1.611h-5.142v2.754h5.874v1.611h-7.676V162.533z"/>
	<path class="st8" d="M438.295,162.533h1.67l5.493,7.09v-7.09h1.772v10.254h-1.509l-5.654-7.295v7.295h-1.772V162.533z"/>
	<path class="st8" d="M450.322,167.689v-0.029c0-2.915,2.183-5.303,5.288-5.303c1.89,0,3.032,0.659,4.014,1.597l-1.157,1.333
		c-0.82-0.762-1.699-1.274-2.871-1.274c-1.948,0-3.384,1.611-3.384,3.618v0.029c0,2.007,1.421,3.633,3.384,3.633
		c1.26,0,2.065-0.498,2.944-1.318l1.157,1.172c-1.069,1.113-2.241,1.816-4.16,1.816
		C452.549,172.962,450.322,170.633,450.322,167.689z"/>
	<path class="st8" d="M462.599,162.533h1.802v10.254h-1.802V162.533z"/>
	<path class="st8" d="M468.048,162.533h7.603v1.611h-5.801v2.666h5.142v1.611h-5.142v2.754h5.874v1.611h-7.676V162.533z"/>
	<path class="st8" d="M478.083,171.292l1.084-1.289c0.981,0.85,1.978,1.333,3.237,1.333c1.113,0,1.816-0.527,1.816-1.289v-0.029
		c0-0.732-0.41-1.128-2.314-1.567c-2.183-0.527-3.413-1.172-3.413-3.062v-0.029c0-1.758,1.465-2.974,3.501-2.974
		c1.494,0,2.681,0.454,3.721,1.289l-0.967,1.362c-0.923-0.688-1.846-1.055-2.783-1.055c-1.055,0-1.67,0.542-1.67,1.216v0.029
		c0,0.791,0.469,1.143,2.446,1.611c2.168,0.527,3.281,1.304,3.281,3.003v0.029c0,1.919-1.509,3.062-3.662,3.062
		C480.793,172.933,479.313,172.391,478.083,171.292z"/>
</g>
<g>
	<path class="st8" d="M344.147,500.831v-0.029c0-1.143,0.952-2.065,2.08-2.065c1.113,0,2.065,0.923,2.065,2.065v0.029
		c0,1.143-0.938,2.051-2.065,2.051C345.084,502.882,344.147,501.974,344.147,500.831z"/>
	<path class="st8" d="M357.347,495.719h1.919l3.12,4.849l3.12-4.849h1.919v10.254h-1.802v-7.354l-3.237,4.834h-0.059l-3.208-4.805
		v7.324h-1.772V495.719z"/>
	<path class="st8" d="M370.518,500.875v-0.029c0-2.886,2.227-5.303,5.376-5.303c3.148,0,5.346,2.388,5.346,5.273v0.029
		c0,2.886-2.227,5.303-5.375,5.303C372.715,506.148,370.518,503.761,370.518,500.875z M379.351,500.875v-0.029
		c0-1.992-1.451-3.647-3.486-3.647c-2.037,0-3.458,1.626-3.458,3.618v0.029c0,1.992,1.45,3.633,3.487,3.633
		C377.929,504.479,379.351,502.867,379.351,500.875z"/>
	<path class="st8" d="M384.332,495.719h3.823c3.223,0,5.449,2.212,5.449,5.098v0.029c0,2.886-2.227,5.127-5.449,5.127h-3.823
		V495.719z M386.133,497.359v6.973h2.021c2.153,0,3.56-1.45,3.56-3.457v-0.029c0-2.007-1.406-3.486-3.56-3.486H386.133z"/>
	<path class="st8" d="M396.697,495.719h7.603v1.611h-5.801v2.666h5.142v1.611h-5.142v2.754h5.874v1.611h-7.676V495.719z"/>
	<path class="st8" d="M407.42,495.719h4.57c1.289,0,2.3,0.381,2.959,1.025c0.542,0.557,0.85,1.318,0.85,2.212v0.029
		c0,1.685-1.011,2.695-2.432,3.105l2.769,3.882h-2.139l-2.52-3.574h-2.256v3.574h-1.802V495.719z M411.859,500.802
		c1.289,0,2.109-0.674,2.109-1.714v-0.029c0-1.099-0.791-1.699-2.124-1.699h-2.622v3.442H411.859z"/>
	<path class="st8" d="M418.92,495.719h1.67l5.493,7.09v-7.09h1.772v10.254h-1.509l-5.654-7.295v7.295h-1.772V495.719z"/>
	<path class="st8" d="M431.504,495.719h1.802v10.254h-1.802V495.719z"/>
	<path class="st8" d="M436.587,504.64l6.05-7.324h-5.859v-1.597h8.218v1.333l-6.064,7.324h6.064v1.597h-8.408V504.64z"/>
	<path class="st8" d="M448.146,495.719h7.603v1.611h-5.801v2.666h5.142v1.611h-5.142v2.754h5.874v1.611h-7.676V495.719z"/>
	<path class="st8" d="M344.147,524.516v-0.029c0-1.143,0.952-2.065,2.08-2.065c1.113,0,2.065,0.923,2.065,2.065v0.029
		c0,1.143-0.938,2.051-2.065,2.051C345.084,526.566,344.147,525.658,344.147,524.516z"/>
	<path class="st8" d="M356.893,524.56v-0.029c0-2.886,2.227-5.303,5.376-5.303s5.347,2.388,5.347,5.273v0.029
		c0,2.886-2.227,5.303-5.376,5.303S356.893,527.445,356.893,524.56z M365.726,524.56v-0.029c0-1.992-1.45-3.647-3.486-3.647
		s-3.457,1.626-3.457,3.618v0.029c0,1.992,1.45,3.633,3.486,3.633S365.726,526.552,365.726,524.56z"/>
	<path class="st8" d="M370.708,519.403h4.571c1.289,0,2.299,0.381,2.959,1.025c0.541,0.557,0.85,1.318,0.85,2.212v0.029
		c0,1.685-1.012,2.695-2.432,3.105l2.768,3.882h-2.139l-2.52-3.574h-2.255v3.574h-1.802V519.403z M375.146,524.486
		c1.289,0,2.109-0.674,2.109-1.714v-0.029c0-1.099-0.791-1.699-2.123-1.699h-2.623v3.442H375.146z"/>
	<path class="st8" d="M381.753,524.56v-0.029c0-2.915,2.183-5.303,5.288-5.303c1.89,0,3.032,0.659,4.014,1.597l-1.157,1.333
		c-0.82-0.762-1.699-1.274-2.871-1.274c-1.948,0-3.384,1.611-3.384,3.618v0.029c0,2.007,1.421,3.633,3.384,3.633
		c1.26,0,2.065-0.498,2.944-1.318l1.157,1.172c-1.069,1.113-2.241,1.816-4.16,1.816C383.98,529.833,381.753,527.504,381.753,524.56z
		"/>
	<path class="st8" d="M393.928,519.403h1.802v4.263h4.893v-4.263h1.802v10.254h-1.802v-4.321h-4.893v4.321h-1.802V519.403z"/>
	<path class="st8" d="M405.97,519.403h7.603v1.611h-5.801v2.666h5.142v1.611h-5.142v2.754h5.874v1.611h-7.676V519.403z"/>
	<path class="st8" d="M416.005,528.163l1.084-1.289c0.981,0.85,1.978,1.333,3.237,1.333c1.113,0,1.816-0.527,1.816-1.289v-0.029
		c0-0.732-0.41-1.128-2.314-1.567c-2.183-0.527-3.413-1.172-3.413-3.062v-0.029c0-1.758,1.465-2.974,3.501-2.974
		c1.494,0,2.681,0.454,3.72,1.289l-0.966,1.362c-0.923-0.688-1.846-1.055-2.783-1.055c-1.055,0-1.67,0.542-1.67,1.216v0.029
		c0,0.791,0.469,1.143,2.446,1.611c2.168,0.527,3.281,1.304,3.281,3.003v0.029c0,1.919-1.508,3.062-3.662,3.062
		C418.715,529.804,417.236,529.262,416.005,528.163z"/>
	<path class="st8" d="M429.277,521.073h-3.252v-1.67h8.32v1.67h-3.252v8.584h-1.816V521.073z"/>
	<path class="st8" d="M437.159,519.403h4.57c1.289,0,2.3,0.381,2.959,1.025c0.542,0.557,0.85,1.318,0.85,2.212v0.029
		c0,1.685-1.011,2.695-2.432,3.105l2.769,3.882h-2.139l-2.52-3.574h-2.256v3.574h-1.802V519.403z M441.598,524.486
		c1.289,0,2.109-0.674,2.109-1.714v-0.029c0-1.099-0.791-1.699-2.124-1.699h-2.622v3.442H441.598z"/>
	<path class="st8" d="M452.292,519.33h1.67l4.512,10.327h-1.904l-1.04-2.476h-4.849l-1.055,2.476h-1.846L452.292,519.33z
		 M454.87,525.585l-1.772-4.102l-1.758,4.102H454.87z"/>
	<path class="st8" d="M462.342,521.073h-3.252v-1.67h8.32v1.67h-3.252v8.584h-1.816V521.073z"/>
	<path class="st8" d="M470.224,519.403h7.603v1.611h-5.801v2.666h5.142v1.611h-5.142v2.754h5.874v1.611h-7.676V519.403z"/>
</g>
<g>
	<path class="st8" d="M539.604,311.705v-0.029c0-1.143,0.952-2.065,2.08-2.065c1.113,0,2.065,0.923,2.065,2.065v0.029
		c0,1.143-0.938,2.051-2.065,2.051C540.541,313.755,539.604,312.847,539.604,311.705z"/>
	<path class="st8" d="M552.803,306.592h1.919l3.12,4.849l3.12-4.849h1.919v10.254h-1.802v-7.354l-3.237,4.834h-0.059l-3.208-4.805
		v7.324h-1.772V306.592z"/>
	<path class="st8" d="M570.06,306.519h1.67l4.512,10.327h-1.904l-1.04-2.476h-4.849l-1.055,2.476h-1.846L570.06,306.519z
		 M572.638,312.774l-1.772-4.102l-1.758,4.102H572.638z"/>
	<path class="st8" d="M578.908,306.592h4.043c2.402,0,3.896,1.362,3.896,3.428v0.029c0,2.3-1.846,3.501-4.102,3.501h-2.036v3.296
		h-1.802V306.592z M582.805,311.924c1.362,0,2.212-0.762,2.212-1.831v-0.029c0-1.201-0.864-1.831-2.212-1.831h-2.095v3.691H582.805z
		"/>
	<path class="st8" d="M593.896,315.337l1.187-1.23c0.601,0.776,1.201,1.216,2.065,1.216c0.967,0,1.626-0.645,1.626-2.021v-6.709
		h1.86v6.768c0,1.216-0.366,2.124-0.967,2.725s-1.465,0.908-2.49,0.908C595.595,316.993,594.569,316.26,593.896,315.337z"/>
	<path class="st8" d="M603.564,311.749v-0.029c0-2.886,2.227-5.303,5.376-5.303s5.347,2.388,5.347,5.273v0.029
		c0,2.886-2.227,5.303-5.376,5.303S603.564,314.634,603.564,311.749z M612.397,311.749v-0.029c0-1.992-1.45-3.647-3.486-3.647
		s-3.457,1.626-3.457,3.618v0.029c0,1.992,1.45,3.633,3.486,3.633S612.397,313.741,612.397,311.749z"/>
	<path class="st8" d="M617.218,312.496v-5.903h1.802v5.83c0,1.904,0.981,2.915,2.593,2.915c1.597,0,2.578-0.952,2.578-2.842v-5.903
		h1.802v5.815c0,3.062-1.729,4.6-4.409,4.6C618.917,317.007,617.218,315.469,617.218,312.496z"/>
	<path class="st8" d="M629.377,306.592h4.57c1.289,0,2.3,0.381,2.959,1.025c0.542,0.557,0.85,1.318,0.85,2.212v0.029
		c0,1.685-1.011,2.695-2.432,3.105l2.769,3.882h-2.139l-2.52-3.574h-2.256v3.574h-1.802V306.592z M633.815,311.675
		c1.289,0,2.109-0.674,2.109-1.714v-0.029c0-1.099-0.791-1.699-2.124-1.699h-2.622v3.442H633.815z"/>
	<path class="st8" d="M640.877,306.592h1.67l5.493,7.09v-7.09h1.772v10.254h-1.509l-5.654-7.295v7.295h-1.772V306.592z"/>
	<path class="st8" d="M653.358,306.592h7.603v1.611h-5.801v2.666h5.142v1.611h-5.142v2.754h5.874v1.611h-7.676V306.592z"/>
	<path class="st8" d="M667.1,312.803l-4.072-6.211h2.139l2.856,4.526l2.9-4.526h2.065l-4.072,6.167v4.087H667.1V312.803z"/>
	<path class="st8" d="M674.278,315.352l1.084-1.289c0.981,0.85,1.978,1.333,3.237,1.333c1.113,0,1.816-0.527,1.816-1.289v-0.029
		c0-0.732-0.41-1.128-2.314-1.567c-2.183-0.527-3.413-1.172-3.413-3.062v-0.029c0-1.758,1.465-2.974,3.501-2.974
		c1.494,0,2.681,0.454,3.721,1.289l-0.967,1.362c-0.923-0.688-1.846-1.055-2.783-1.055c-1.055,0-1.67,0.542-1.67,1.216v0.029
		c0,0.791,0.469,1.143,2.446,1.611c2.168,0.527,3.281,1.304,3.281,3.003v0.029c0,1.919-1.509,3.062-3.662,3.062
		C676.988,316.993,675.509,316.451,674.278,315.352z"/>
	<path class="st8" d="M539.604,335.389v-0.029c0-1.143,0.952-2.065,2.08-2.065c1.113,0,2.065,0.923,2.065,2.065v0.029
		c0,1.143-0.938,2.051-2.065,2.051C540.541,337.44,539.604,336.532,539.604,335.389z"/>
	<path class="st8" d="M552.803,330.277h3.823c3.223,0,5.449,2.212,5.449,5.098v0.029c0,2.886-2.227,5.127-5.449,5.127h-3.823
		V330.277z M554.604,331.917v6.973h2.021c2.153,0,3.56-1.45,3.56-3.457v-0.029c0-2.007-1.406-3.486-3.56-3.486H554.604z"/>
	<path class="st8" d="M565.167,330.277h7.603v1.611h-5.801v2.666h5.142v1.611h-5.142v2.754h5.874v1.611h-7.676V330.277z"/>
	<path class="st8" d="M575.891,330.277h7.632v1.641h-5.83v2.798h5.171v1.641h-5.171v4.175h-1.802V330.277z"/>
	<path class="st8" d="M586.513,330.277h1.802v10.254h-1.802V330.277z"/>
	<path class="st8" d="M591.962,330.277h1.67l5.493,7.09v-7.09h1.772v10.254h-1.509l-5.654-7.295v7.295h-1.772V330.277z"/>
	<path class="st8" d="M604.443,330.277h7.603v1.611h-5.801v2.666h5.142v1.611h-5.142v2.754h5.874v1.611h-7.676V330.277z"/>
	<path class="st8" d="M552.374,353.013v-0.029c0-2.915,2.183-5.303,5.288-5.303c1.89,0,3.032,0.659,4.014,1.597l-1.157,1.333
		c-0.82-0.762-1.699-1.274-2.871-1.274c-1.948,0-3.384,1.611-3.384,3.618v0.029c0,2.007,1.421,3.633,3.384,3.633
		c1.26,0,2.065-0.498,2.944-1.318l1.157,1.172c-1.069,1.113-2.241,1.816-4.16,1.816
		C554.601,358.286,552.374,355.957,552.374,353.013z"/>
	<path class="st8" d="M563.801,353.013v-0.029c0-2.886,2.227-5.303,5.376-5.303s5.347,2.388,5.347,5.273v0.029
		c0,2.886-2.227,5.303-5.376,5.303S563.801,355.898,563.801,353.013z M572.634,353.013v-0.029c0-1.992-1.45-3.647-3.486-3.647
		s-3.457,1.626-3.457,3.618v0.029c0,1.992,1.45,3.633,3.486,3.633S572.634,355.005,572.634,353.013z"/>
	<path class="st8" d="M577.615,347.856h1.919l3.12,4.849l3.12-4.849h1.919v10.254h-1.802v-7.354l-3.237,4.834h-0.059l-3.208-4.805
		v7.324h-1.772V347.856z"/>
	<path class="st8" d="M591.239,347.856h4.043c2.402,0,3.896,1.362,3.896,3.428v0.029c0,2.3-1.846,3.501-4.102,3.501h-2.036v3.296
		h-1.802V347.856z M595.136,353.188c1.362,0,2.212-0.762,2.212-1.831v-0.029c0-1.201-0.864-1.831-2.212-1.831h-2.095v3.691H595.136z
		"/>
	<path class="st8" d="M601.934,347.856h1.802v8.613h5.391v1.641h-7.192V347.856z"/>
	<path class="st8" d="M612.014,347.856h1.802v10.254h-1.802V347.856z"/>
	<path class="st8" d="M621.096,347.783h1.67l4.512,10.327h-1.904l-1.04-2.476h-4.849l-1.055,2.476h-1.846L621.096,347.783z
		 M623.674,354.038l-1.772-4.102l-1.758,4.102H623.674z"/>
	<path class="st8" d="M629.944,347.856h1.67l5.493,7.09v-7.09h1.772v10.254h-1.509l-5.654-7.295v7.295h-1.772V347.856z"/>
	<path class="st8" d="M641.972,353.013v-0.029c0-2.915,2.183-5.303,5.288-5.303c1.89,0,3.032,0.659,4.014,1.597l-1.157,1.333
		c-0.82-0.762-1.699-1.274-2.871-1.274c-1.948,0-3.384,1.611-3.384,3.618v0.029c0,2.007,1.421,3.633,3.384,3.633
		c1.26,0,2.065-0.498,2.944-1.318l1.157,1.172c-1.069,1.113-2.241,1.816-4.16,1.816
		C644.198,358.286,641.972,355.957,641.972,353.013z"/>
	<path class="st8" d="M654.146,347.856h7.603v1.611h-5.801v2.666h5.142v1.611h-5.142v2.754h5.874v1.611h-7.676V347.856z"/>
</g>
<g>
	<path class="st8" d="M159.992,311.705v-0.029c0-1.143,0.952-2.065,2.08-2.065c1.113,0,2.065,0.923,2.065,2.065v0.029
		c0,1.143-0.938,2.051-2.065,2.051C160.929,313.755,159.992,312.847,159.992,311.705z"/>
	<path class="st8" d="M173.191,306.592h4.57c1.289,0,2.3,0.381,2.959,1.025c0.542,0.557,0.85,1.318,0.85,2.212v0.029
		c0,1.685-1.011,2.695-2.432,3.105l2.769,3.882h-2.139l-2.52-3.574h-2.256v3.574h-1.802V306.592z M177.63,311.675
		c1.289,0,2.109-0.674,2.109-1.714v-0.029c0-1.099-0.791-1.699-2.124-1.699h-2.622v3.442H177.63z"/>
	<path class="st8" d="M184.692,306.592h7.603v1.611h-5.801v2.666h5.142v1.611h-5.142v2.754h5.874v1.611h-7.676V306.592z"/>
	<path class="st8" d="M195.518,306.592h1.802v10.254h-1.802V306.592z"/>
	<path class="st8" d="M200.968,306.592h1.67l5.493,7.09v-7.09h1.772v10.254h-1.509l-5.654-7.295v7.295h-1.772V306.592z"/>
	<path class="st8" d="M212.57,306.592h1.992l3.091,7.881l3.076-7.881h1.948l-4.248,10.327h-1.597L212.57,306.592z"/>
	<path class="st8" d="M225.345,306.592h7.603v1.611h-5.801v2.666h5.142v1.611h-5.142v2.754h5.874v1.611h-7.676V306.592z"/>
	<path class="st8" d="M236.069,306.592h1.67l5.493,7.09v-7.09h1.772v10.254h-1.509l-5.654-7.295v7.295h-1.772V306.592z"/>
	<path class="st8" d="M251.07,308.262h-3.252v-1.67h8.32v1.67h-3.252v8.584h-1.816V308.262z"/>
	<path class="st8" d="M159.992,335.389v-0.029c0-1.143,0.952-2.065,2.08-2.065c1.113,0,2.065,0.923,2.065,2.065v0.029
		c0,1.143-0.938,2.051-2.065,2.051C160.929,337.44,159.992,336.532,159.992,335.389z"/>
	<path class="st8" d="M176.824,330.204h1.67l4.512,10.327h-1.904l-1.04-2.476h-4.849l-1.055,2.476h-1.846L176.824,330.204z
		 M179.402,336.458l-1.772-4.102l-1.758,4.102H179.402z"/>
	<path class="st8" d="M185.673,330.277h4.043c2.402,0,3.896,1.362,3.896,3.428v0.029c0,2.3-1.846,3.501-4.102,3.501h-2.036v3.296
		h-1.802V330.277z M189.57,335.609c1.362,0,2.212-0.762,2.212-1.831v-0.029c0-1.201-0.864-1.831-2.212-1.831h-2.095v3.691H189.57z"
		/>
	<path class="st8" d="M196.368,330.277h4.043c2.402,0,3.896,1.362,3.896,3.428v0.029c0,2.3-1.846,3.501-4.102,3.501h-2.036v3.296
		h-1.802V330.277z M200.264,335.609c1.362,0,2.212-0.762,2.212-1.831v-0.029c0-1.201-0.864-1.831-2.212-1.831h-2.095v3.691H200.264z
		"/>
	<path class="st8" d="M207.062,330.277h1.802v8.613h5.391v1.641h-7.192V330.277z"/>
	<path class="st8" d="M218.152,336.488l-4.072-6.211h2.139l2.856,4.526l2.9-4.526h2.065l-4.072,6.167v4.087h-1.816V336.488z"/>
	<path class="st8" d="M235.468,330.204h1.67l4.512,10.327h-1.904l-1.04-2.476h-4.849l-1.055,2.476h-1.846L235.468,330.204z
		 M238.046,336.458l-1.772-4.102l-1.758,4.102H238.046z"/>
	<path class="st8" d="M244.419,330.277h1.802v10.254h-1.802V330.277z"/>
</g>
<linearGradient id="SVGID_9_" gradientUnits="userSpaceOnUse" x1="352.3872" y1="356.7599" x2="470.7088" y2="238.4382">
	<stop  offset="0" style="stop-color:#318DDE"/>
	<stop  offset="1" style="stop-color:#1CD0BB"/>
</linearGradient>
<circle class="st9" cx="411.548" cy="297.599" r="83.666"/>
<g>
	<g>
		<path class="st8" d="M344.263,290.037h7.69c4.537,0,7.46,2.333,7.46,6.306v0.051c0,4.229-3.256,6.46-7.716,6.46h-2.461v5.127
			h-4.973V290.037z M351.595,298.958c1.769,0,2.845-0.923,2.845-2.333v-0.051c0-1.538-1.076-2.358-2.871-2.358h-2.333v4.742H351.595
			z"/>
		<path class="st8" d="M363.106,290.037h8.485c2.743,0,4.641,0.718,5.845,1.948c1.052,1.025,1.59,2.41,1.59,4.179v0.051
			c0,2.743-1.462,4.563-3.691,5.512l4.28,6.255h-5.742l-3.614-5.435h-2.179v5.435h-4.973V290.037z M371.361,298.65
			c1.692,0,2.666-0.82,2.666-2.128v-0.051c0-1.41-1.025-2.128-2.691-2.128h-3.256v4.307H371.361z"/>
		<path class="st8" d="M382.515,299.061v-0.051c0-5.153,4.152-9.331,9.689-9.331s9.639,4.127,9.639,9.28v0.051
			c0,5.153-4.152,9.331-9.689,9.331S382.515,304.213,382.515,299.061z M396.767,299.061v-0.051c0-2.589-1.871-4.845-4.613-4.845
			c-2.718,0-4.538,2.205-4.538,4.794v0.051c0,2.589,1.872,4.845,4.589,4.845C394.948,303.854,396.767,301.649,396.767,299.061z"/>
		<path class="st8" d="M405.408,299.061v-0.051c0-5.229,4.025-9.331,9.46-9.331c3.665,0,6.024,1.538,7.613,3.743l-3.743,2.896
			c-1.025-1.281-2.204-2.102-3.922-2.102c-2.512,0-4.281,2.127-4.281,4.742v0.051c0,2.692,1.77,4.793,4.281,4.793
			c1.871,0,2.974-0.871,4.051-2.179l3.742,2.666c-1.691,2.333-3.973,4.05-7.946,4.05
			C409.536,308.34,405.408,304.418,405.408,299.061z"/>
		<path class="st8" d="M426.329,290.037h14.432v4.229h-9.51v2.718h8.613v3.922h-8.613v2.846h9.639v4.229h-14.561V290.037z"/>
		<path class="st8" d="M443.659,305.315l2.769-3.307c1.769,1.41,3.743,2.153,5.819,2.153c1.333,0,2.051-0.462,2.051-1.23v-0.052
			c0-0.743-0.59-1.153-3.025-1.717c-3.819-0.872-6.768-1.948-6.768-5.64v-0.051c0-3.333,2.641-5.742,6.947-5.742
			c3.051,0,5.435,0.82,7.383,2.384l-2.486,3.512c-1.641-1.154-3.436-1.769-5.024-1.769c-1.205,0-1.794,0.513-1.794,1.154v0.051
			c0,0.82,0.615,1.179,3.102,1.743c4.127,0.897,6.69,2.23,6.69,5.588v0.051c0,3.666-2.896,5.845-7.255,5.845
			C448.889,308.289,445.864,307.289,443.659,305.315z"/>
		<path class="st8" d="M461.708,305.315l2.769-3.307c1.769,1.41,3.743,2.153,5.819,2.153c1.333,0,2.051-0.462,2.051-1.23v-0.052
			c0-0.743-0.59-1.153-3.025-1.717c-3.819-0.872-6.768-1.948-6.768-5.64v-0.051c0-3.333,2.641-5.742,6.947-5.742
			c3.051,0,5.435,0.82,7.383,2.384l-2.486,3.512c-1.641-1.154-3.436-1.769-5.024-1.769c-1.205,0-1.794,0.513-1.794,1.154v0.051
			c0,0.82,0.615,1.179,3.102,1.743c4.127,0.897,6.69,2.23,6.69,5.588v0.051c0,3.666-2.896,5.845-7.255,5.845
			C466.938,308.289,463.913,307.289,461.708,305.315z"/>
	</g>
</g>
<g>
	<rect x="146.057" y="250.314" class="st8" width="137.798" height="41.876"/>
	<g>
		<path class="st10" d="M169.743,271.165v-0.037c0-3.644,2.875-6.628,6.83-6.628s6.793,2.948,6.793,6.592v0.037
			c0,3.644-2.875,6.628-6.83,6.628S169.743,274.809,169.743,271.165z M180.417,271.165v-0.037c0-2.197-1.611-4.028-3.882-4.028
			s-3.845,1.794-3.845,3.992v0.037c0,2.197,1.611,4.028,3.882,4.028S180.417,273.362,180.417,271.165z"/>
		<path class="st10" d="M185.784,264.719h5.237c3.058,0,4.907,1.813,4.907,4.431v0.037c0,2.966-2.307,4.504-5.182,4.504h-2.143
			v3.845h-2.82V264.719z M190.838,271.183c1.41,0,2.234-0.842,2.234-1.94v-0.037c0-1.263-0.879-1.94-2.289-1.94h-2.179v3.918
			H190.838z"/>
		<path class="st10" d="M200.91,267.319h-3.9v-2.6h10.62v2.6h-3.9v10.217h-2.82V267.319z"/>
		<path class="st10" d="M209.829,264.719h2.819v12.817h-2.819V264.719z"/>
		<path class="st10" d="M215.762,264.719h3.04l3.369,5.42l3.369-5.42h3.04v12.817h-2.801v-8.368l-3.607,5.475h-0.073l-3.57-5.42
			v8.313h-2.765V264.719z"/>
		<path class="st10" d="M231.694,264.719h2.819v12.817h-2.819V264.719z"/>
		<path class="st10" d="M237.243,275.395l7.049-8.203h-6.83v-2.472h10.455v2.142l-7.05,8.203h7.05v2.472h-10.675V275.395z"/>
		<path class="st10" d="M250.5,264.719h9.668v2.508h-6.866v2.601h6.042v2.508h-6.042v2.692h6.958v2.508h-9.76V264.719z"/>
	</g>
</g>
<g>
	<rect x="338.66" y="64.072" class="st8" width="137.798" height="41.876"/>
	<g>
		<path class="st10" d="M359.205,78.477h4.999c4.028,0,6.812,2.765,6.812,6.372v0.037c0,3.607-2.783,6.409-6.812,6.409h-4.999
			V78.477z M362.025,81.022v7.727h2.179c2.308,0,3.864-1.556,3.864-3.827v-0.037c0-2.271-1.556-3.863-3.864-3.863H362.025z"/>
		<path class="st10" d="M373.562,78.477h2.82v12.817h-2.82V78.477z"/>
		<path class="st10" d="M378.617,89.427l1.666-1.996c1.154,0.952,2.362,1.557,3.827,1.557c1.153,0,1.85-0.458,1.85-1.208v-0.037
			c0-0.714-0.439-1.08-2.582-1.63c-2.582-0.659-4.248-1.373-4.248-3.918v-0.037c0-2.325,1.868-3.863,4.486-3.863
			c1.867,0,3.46,0.586,4.761,1.63l-1.465,2.124c-1.136-0.788-2.252-1.264-3.333-1.264c-1.08,0-1.647,0.494-1.647,1.117v0.036
			c0,0.843,0.549,1.117,2.765,1.685c2.601,0.678,4.065,1.611,4.065,3.846v0.036c0,2.545-1.941,3.974-4.706,3.974
			C382.114,91.478,380.155,90.8,378.617,89.427z"/>
		<path class="st10" d="M390.556,84.922v-0.037c0-3.644,2.746-6.628,6.684-6.628c2.416,0,3.863,0.806,5.053,1.978l-1.794,2.069
			c-0.989-0.897-1.996-1.446-3.277-1.446c-2.161,0-3.718,1.794-3.718,3.992v0.037c0,2.197,1.521,4.028,3.718,4.028
			c1.465,0,2.362-0.586,3.369-1.501l1.794,1.813c-1.318,1.41-2.783,2.289-5.255,2.289C393.357,91.514,390.556,88.603,390.556,84.922
			z"/>
		<path class="st10" d="M403.979,84.922v-0.037c0-3.644,2.874-6.628,6.829-6.628s6.794,2.948,6.794,6.592v0.037
			c0,3.644-2.875,6.628-6.83,6.628S403.979,88.566,403.979,84.922z M414.654,84.922v-0.037c0-2.197-1.611-4.028-3.882-4.028
			s-3.845,1.794-3.845,3.992v0.037c0,2.197,1.611,4.028,3.881,4.028C413.08,88.914,414.654,87.12,414.654,84.922z"/>
		<path class="st10" d="M418.922,78.477h3.112l3.351,9.027l3.351-9.027h3.04l-5.183,12.909h-2.49L418.922,78.477z"/>
		<path class="st10" d="M433.663,78.477h9.668v2.508h-6.866v2.601h6.042v2.508h-6.042v2.692h6.958v2.508h-9.76V78.477z"/>
		<path class="st10" d="M445.841,78.477h5.859c1.63,0,2.893,0.458,3.735,1.3c0.714,0.714,1.099,1.721,1.099,2.93v0.036
			c0,2.069-1.117,3.369-2.746,3.974l3.131,4.578h-3.296l-2.747-4.102h-2.215v4.102h-2.82V78.477z M451.517,84.703
			c1.374,0,2.161-0.732,2.161-1.813v-0.036c0-1.209-0.843-1.831-2.216-1.831h-2.801v3.68H451.517z"/>
	</g>
</g>
<g>
	<rect x="533.869" y="250.314" class="st8" width="137.798" height="41.876"/>
	<g>
		<path class="st10" d="M548.8,265.221h4.999c4.028,0,6.812,2.765,6.812,6.372v0.037c0,3.607-2.783,6.409-6.812,6.409H548.8V265.221
			z M551.62,267.766v7.728h2.179c2.307,0,3.863-1.557,3.863-3.827v-0.037c0-2.271-1.557-3.864-3.863-3.864H551.62z"/>
		<path class="st10" d="M562.461,271.666v-0.037c0-3.644,2.874-6.628,6.829-6.628s6.794,2.948,6.794,6.592v0.037
			c0,3.644-2.875,6.628-6.83,6.628S562.461,275.31,562.461,271.666z M573.136,271.666v-0.037c0-2.197-1.611-4.028-3.882-4.028
			s-3.845,1.794-3.845,3.992v0.037c0,2.197,1.611,4.028,3.881,4.028C571.562,275.658,573.136,273.863,573.136,271.666z"/>
		<path class="st10" d="M577.936,271.666v-0.037c0-3.644,2.746-6.628,6.683-6.628c2.418,0,3.864,0.806,5.055,1.978l-1.795,2.069
			c-0.988-0.897-1.996-1.447-3.277-1.447c-2.161,0-3.717,1.794-3.717,3.992v0.037c0,2.197,1.52,4.028,3.717,4.028
			c1.465,0,2.361-0.586,3.369-1.501l1.794,1.812c-1.318,1.41-2.783,2.289-5.255,2.289
			C580.737,278.258,577.936,275.347,577.936,271.666z"/>
		<path class="st10" d="M591.725,272.545v-7.324h2.819v7.251c0,2.087,1.044,3.168,2.766,3.168c1.721,0,2.765-1.044,2.765-3.076
			v-7.343h2.819v7.232c0,3.882-2.179,5.786-5.621,5.786S591.725,276.317,591.725,272.545z"/>
		<path class="st10" d="M605.679,265.221h3.039l3.369,5.42l3.369-5.42h3.04v12.817h-2.802v-8.368l-3.607,5.475h-0.072l-3.571-5.42
			v8.313h-2.765V265.221z"/>
		<path class="st10" d="M621.482,265.221h9.668v2.509h-6.866v2.6h6.042v2.509h-6.042v2.691h6.958v2.509h-9.76V265.221z"/>
		<path class="st10" d="M633.66,265.221h2.601l6.006,7.892v-7.892h2.783v12.817h-2.399l-6.207-8.148v8.148h-2.783V265.221z"/>
		<path class="st10" d="M651.02,267.821h-3.899v-2.6h10.619v2.6h-3.899v10.217h-2.82V267.821z"/>
	</g>
</g>
<g>
	<rect x="338.66" y="439.904" class="st8" width="137.798" height="41.876"/>
	<g>
		<path class="st10" d="M358.738,454.216h2.6l5.493,12.909h-2.948l-1.172-2.875h-5.42l-1.172,2.875h-2.875L358.738,454.216z
			 M361.704,461.76l-1.703-4.156l-1.703,4.156H361.704z"/>
		<path class="st10" d="M368.517,461.632v-7.324h2.82v7.251c0,2.087,1.043,3.168,2.765,3.168c1.722,0,2.765-1.044,2.765-3.076
			v-7.343h2.82v7.232c0,3.882-2.18,5.786-5.621,5.786C370.623,467.326,368.517,465.403,368.517,461.632z"/>
		<path class="st10" d="M385.456,456.907h-3.899v-2.6h10.619v2.6h-3.899v10.218h-2.82V456.907z"/>
		<path class="st10" d="M393.679,460.753v-0.037c0-3.644,2.875-6.628,6.83-6.628s6.793,2.948,6.793,6.592v0.036
			c0,3.645-2.875,6.629-6.83,6.629S393.679,464.396,393.679,460.753z M404.354,460.753v-0.037c0-2.197-1.611-4.027-3.882-4.027
			s-3.846,1.794-3.846,3.991v0.036c0,2.197,1.611,4.029,3.883,4.029C402.779,464.745,404.354,462.95,404.354,460.753z"/>
		<path class="st10" d="M409.72,454.308h3.039l3.369,5.42l3.369-5.42h3.04v12.817h-2.802v-8.368l-3.607,5.475h-0.072l-3.571-5.42
			v8.313h-2.765V454.308z"/>
		<path class="st10" d="M429.918,454.216h2.601l5.492,12.909h-2.947l-1.172-2.875h-5.42l-1.172,2.875h-2.875L429.918,454.216z
			 M432.884,461.76l-1.702-4.156l-1.703,4.156H432.884z"/>
		<path class="st10" d="M442.883,456.907h-3.899v-2.6h10.619v2.6h-3.899v10.218h-2.82V456.907z"/>
		<path class="st10" d="M451.674,454.308h9.668v2.509h-6.866v2.6h6.042v2.509h-6.042v2.691h6.958v2.509h-9.76V454.308z"/>
	</g>
</g>
</svg>
